<svg width="19" height="20" viewBox="0 0 19 20" fill="none" xmlns="http://www.w3.org/2000/svg">
<path d="M16.5121 3.64427H2.35888C2.04607 3.64427 1.74608 3.77225 1.52489 4.00007C1.3037 4.22788 1.17944 4.53686 1.17944 4.85903V14.5771C1.17944 14.8993 1.3037 15.2082 1.52489 15.4361C1.74608 15.6639 2.04607 15.7919 2.35888 15.7919H16.5121C16.8249 15.7919 17.1249 15.6639 17.3461 15.4361C17.5673 15.2082 17.6915 14.8993 17.6915 14.5771V4.85903C17.6915 4.53686 17.5673 4.22788 17.3461 4.00007C17.1249 3.77225 16.8249 3.64427 16.5121 3.64427ZM15.2147 4.85903L9.43549 8.97706L3.65626 4.85903H15.2147ZM2.35888 14.5771V5.41174L9.09935 10.2161C9.19807 10.2866 9.31535 10.3244 9.43549 10.3244C9.55564 10.3244 9.67291 10.2866 9.77163 10.2161L16.5121 5.41174V14.5771H2.35888Z" fill="black"/>
</svg>
