<svg width="19" height="20" viewBox="0 0 19 20" fill="none" xmlns="http://www.w3.org/2000/svg">
<path d="M15.3326 17.614H15.2323C3.64435 16.9276 1.99903 6.85731 1.76904 3.78397C1.75051 3.54501 1.77794 3.30464 1.84976 3.07662C1.92158 2.8486 2.03638 2.63742 2.18758 2.45518C2.33878 2.27293 2.5234 2.12321 2.73088 2.01458C2.93836 1.90595 3.16461 1.84055 3.39667 1.82214H6.64601C6.88223 1.8219 7.11307 1.89472 7.30864 2.03117C7.5042 2.16762 7.65549 2.36141 7.74289 2.58743L8.63926 4.85903C8.72556 5.07984 8.74698 5.3219 8.70085 5.55514C8.65472 5.78838 8.54307 6.00253 8.37978 6.17097L7.12368 7.47683C7.31989 8.62523 7.85386 9.68385 8.65335 10.5095C9.45284 11.3351 10.4793 11.8878 11.5937 12.0929L12.8734 10.787C13.0394 10.6207 13.2493 10.5084 13.4769 10.4641C13.7044 10.4198 13.9396 10.4455 14.1531 10.538L16.3764 11.4552C16.5925 11.548 16.7769 11.7051 16.9061 11.9062C17.0353 12.1074 17.1034 12.3437 17.1017 12.5849V15.7919C17.1017 16.2751 16.9153 16.7386 16.5835 17.0803C16.2518 17.422 15.8018 17.614 15.3326 17.614ZM3.5382 3.03689C3.3818 3.03689 3.2318 3.10089 3.1212 3.21479C3.01061 3.3287 2.94848 3.48319 2.94848 3.64427V3.69286C3.21975 7.28855 4.95942 15.7919 15.2972 16.3992C15.3746 16.4042 15.4523 16.3933 15.5257 16.3672C15.5991 16.3412 15.6667 16.3005 15.7248 16.2474C15.7829 16.1944 15.8302 16.1301 15.8641 16.0581C15.898 15.9862 15.9178 15.9081 15.9223 15.8283V12.5849L13.699 11.6677L12.0065 13.3988L11.7235 13.3623C6.59294 12.7003 5.89707 7.4161 5.89707 7.36143L5.86169 7.06989L7.53648 5.32671L6.65191 3.03689H3.5382Z" fill="black"/>
</svg>
