<svg width="73" height="72" viewBox="0 0 73 72" fill="none" xmlns="http://www.w3.org/2000/svg">
<g clip-path="url(#clip0_332_2247)">
<g clip-path="url(#clip1_332_2247)">
<g clip-path="url(#clip2_332_2247)">
<path d="M72.4713 57.9212V51.5857H65.7134V47.362H63.4608V43.8423H65.7134V37.5068H48.8691V39.6187H63.6016V41.7305H19.9068V43.8423H61.3489V47.362H15.3815C14.411 47.362 13.6216 46.5726 13.6216 45.6022C13.6216 44.6317 14.411 43.8423 15.3815 43.8423H17.795V41.7305H15.3815C13.2467 41.7305 11.5098 43.4673 11.5098 45.6022C11.5098 47.7371 13.2467 49.4739 15.3815 49.4739H63.6015V51.5857H27.2077V53.6975H70.3593V55.8093H10.7355C7.43608 55.8093 4.75195 58.4935 4.75195 61.7928C4.75195 65.0922 7.43608 67.7763 10.7355 67.7763H60.4739V65.6645H10.7356C8.60068 65.6645 6.86392 63.9278 6.86392 61.7928C6.86392 59.6579 8.60068 57.9212 10.7356 57.9212H68.1068V61.4409H21.2947V63.5527H68.1068V65.6645H62.5858V67.7763H70.3595V69.8882H10.7356C6.27176 69.8882 2.64027 66.2567 2.64027 61.7928C2.64027 57.329 6.27176 53.6975 10.7356 53.6975H25.096V51.5857H15.3816C12.0822 51.5857 9.39811 48.9015 9.39811 45.6022C9.39811 42.3028 12.0822 39.6187 15.3816 39.6187H46.7573V37.5068H15.3816C10.9178 37.5068 7.28628 41.1383 7.28628 45.6022C7.28628 47.9874 8.32375 50.1344 9.97055 51.6174C4.69859 52.0103 0.528442 56.4222 0.528442 61.7928C0.528442 67.4211 5.1073 72 10.7356 72H72.4713V65.6645H70.2187V57.9212H72.4713Z" fill="#3B2565"/>
<path d="M17.071 61.4409H19.1829V63.5527H17.071V61.4409Z" fill="white"/>
<path d="M19.9571 31.3844L20.4273 31.6979C20.6106 31.8201 25.0485 34.6911 36.4997 34.6911C47.9509 34.6911 52.3888 31.8201 52.5721 31.6979L53.0423 31.3844V13.6065L59.3778 11.4947V21.4637C57.7548 21.9247 56.562 23.4192 56.562 25.1879V30.4674H64.3054V25.1879C64.3054 23.4192 63.1126 21.9247 61.4896 21.4637V10.7907L65.1807 9.56037L54.0914 5.86383L53.4235 7.86725L58.5025 9.56023L36.4997 16.8946L14.4969 9.56037L36.4997 2.22615L51.42 7.19963L52.0879 5.19622L36.4997 0L7.81873 9.56037L19.9571 13.6065V31.3844ZM62.1936 25.1879V28.3556H58.6739V25.1879C58.6739 24.2174 59.4633 23.428 60.4337 23.428C61.4042 23.428 62.1936 24.2174 62.1936 25.1879ZM22.0689 14.3104L36.4997 19.1207L50.9305 14.3104V22.5833H48.3259V24.6951H50.9305V26.8069H46.3549V28.9188H50.9305V30.1918C49.5697 30.8545 45.1913 32.5793 36.4997 32.5793C27.8015 32.5793 23.423 30.8518 22.0689 30.1923V14.3104Z" fill="#3B2565"/>
<path d="M12.8475 61.4409H14.9594V63.5527H12.8475V61.4409Z" fill="white"/>
<path d="M42.1313 26.8069H44.2432V28.9187H42.1313V26.8069Z" fill="white"/>
</g>
</g>
</g>
<defs>
<clipPath id="clip0_332_2247">
<rect width="72" height="72" fill="white" transform="translate(0.5)"/>
</clipPath>
<clipPath id="clip1_332_2247">
<rect width="72" height="72" fill="white" transform="translate(0.5)"/>
</clipPath>
<clipPath id="clip2_332_2247">
<rect width="71.9428" height="72" fill="white" transform="translate(0.528442)"/>
</clipPath>
</defs>
</svg>
