<svg width="72" height="72" viewBox="0 0 72 72" fill="none" xmlns="http://www.w3.org/2000/svg">
<g clip-path="url(#clip0_332_2260)">
<g clip-path="url(#clip1_332_2260)">
<g clip-path="url(#clip2_332_2260)">
<g clip-path="url(#clip3_332_2260)">
<path d="M70.8006 3.14169e-08C70.8005 3.14169e-08 70.8002 3.14169e-08 70.8 3.14169e-08H1.2C0.53745 -0.000149969 0.00015 0.53685 0 1.1994C0 1.19955 0 1.19985 0 1.2V25.2H2.4V2.4H69.6V28.8H27.6V31.2H70.8C71.4626 31.2002 71.9999 30.6632 72 30.0006C72 30.0005 72 30.0002 72 30V1.2C72.0002 0.53745 71.4632 0.000150031 70.8006 3.14169e-08Z" fill="#FF7B52"/>
</g>
</g>
<g clip-path="url(#clip4_332_2260)">
<g clip-path="url(#clip5_332_2260)">
<path d="M63.6 6H39.6V8.4H63.6V6Z" fill="#FF7B52"/>
</g>
</g>
<g clip-path="url(#clip6_332_2260)">
<g clip-path="url(#clip7_332_2260)">
<path d="M67.1999 13.2H43.2V15.6H67.1999V13.2Z" fill="#FF7B52"/>
</g>
</g>
<g clip-path="url(#clip8_332_2260)">
<g clip-path="url(#clip9_332_2260)">
<path d="M62.4 20.4H38.4V22.8H62.4V20.4Z" fill="#FF7B52"/>
</g>
</g>
<g clip-path="url(#clip10_332_2260)">
<g clip-path="url(#clip11_332_2260)">
<path d="M38.3043 10.3461C37.4827 8.37134 35.2159 7.43654 33.2413 8.25809C33.2076 8.27219 33.174 8.28659 33.1407 8.30159L23.4105 13.3491C23.7942 12.5538 23.9956 11.6829 24 10.8C24 7.48634 21.3136 4.79999 18 4.79999C14.6863 4.79999 12 7.48634 12 10.8C12.0045 12.1024 12.4369 13.3674 13.2307 14.4H13.1808C9.7746 14.4228 6.73395 16.5403 5.5314 19.7274L2.328 30.7687C1.5654 32.7496 2.553 34.9738 4.53405 35.7364C5.43735 36.0841 6.4386 36.0783 7.33785 35.7199C8.37105 35.3037 9.17505 34.4631 9.5451 33.4125L10.8 29.4187V46.7862C9.7674 45.9925 8.50245 45.5601 7.2 45.5554C3.8913 45.5505 1.20495 48.2287 1.2 51.5376C1.1976 53.158 1.8516 54.7102 3.01305 55.8403C1.16985 56.782 0.00720003 58.6744 3.14169e-08 60.7441V70.8C-0.000149969 71.4625 0.53685 71.9998 1.1994 72C1.19955 72 1.19985 72 1.2 72H13.2C13.8625 72.0001 14.3998 71.4631 14.4 70.8006C14.4 70.8004 14.4 70.8001 14.4 70.8V60.7441C14.3941 59.0433 13.6039 57.4404 12.2586 56.4H21.3415C19.996 57.4404 19.2059 59.0433 19.2001 60.7441V70.8C19.2 71.4625 19.737 71.9998 20.3995 72C20.3997 72 20.4 72 20.4002 72H32.4002C33.0627 72.0001 33.6 71.4631 33.6001 70.8006C33.6001 70.8004 33.6001 70.8001 33.6001 70.8V60.7441C33.5929 58.6744 32.4303 56.782 30.5871 55.8403C32.9563 53.5278 33.0024 49.7323 30.6898 47.3631C29.2657 45.904 27.1977 45.2688 25.2001 45.6768V21.1288L36.2163 15.4089C38.1909 14.5875 39.1257 12.3207 38.3043 10.3461ZM18 7.19999C19.9882 7.19999 21.6 8.81174 21.6 10.8C21.6 12.7882 19.9882 14.4 18 14.4C16.0126 14.3979 14.4021 12.7873 14.4 10.8C14.4 8.81174 16.0117 7.19999 18 7.19999ZM7.2 47.9554C9.18825 47.9554 10.8 49.5672 10.8 51.5554C10.8 53.5437 9.18825 55.1554 7.2 55.1554C5.21175 55.1554 3.6 53.5437 3.6 51.5554C3.6021 49.5681 5.21265 47.9577 7.2 47.9554ZM12 69.6H2.4V60.7441C2.4024 59.0085 3.80895 57.6021 5.54475 57.6H8.85525C10.5909 57.6021 11.9976 59.0085 12 60.7441V69.6ZM31.2 60.7441V69.6H21.6V60.7441C21.6024 59.0085 23.0089 57.6021 24.7447 57.6H28.0552C29.791 57.6021 31.1976 59.0085 31.2 60.7441ZM26.4 47.9554C28.3873 47.9575 29.9979 49.5681 30 51.5554C30 53.5437 28.3882 55.1554 26.4 55.1554C24.4117 55.1554 22.8 53.5437 22.8 51.5554C22.8 49.5672 24.4117 47.9554 26.4 47.9554ZM36.1084 12.348C35.9478 12.7602 35.618 13.0837 35.2026 13.2363L23.4475 19.3347C23.0497 19.5411 22.8 19.9519 22.8 20.4V46.7862C20.5522 48.4482 19.7736 51.4561 20.9328 54H19.2V33.6H16.8V54H12.6672C13.0086 53.2455 13.1884 52.428 13.1955 51.6H13.2V21.6C13.1998 20.9371 12.6624 20.4 11.9997 20.4001C11.4757 20.4003 11.0124 20.7403 10.8552 21.2403L7.272 32.6425C7.0005 33.3913 6.17325 33.7783 5.42445 33.5067C5.37195 33.4876 5.3205 33.4656 5.2704 33.4405C4.57815 33.0828 4.2843 32.2476 4.6002 31.5351L7.80345 20.4937C8.6673 18.2752 10.7998 16.8103 13.1806 16.8H21.6774C21.8697 16.8003 22.0593 16.7539 22.23 16.6653L34.1568 10.4743C34.8723 10.1758 35.697 10.4812 36.0453 11.1739C36.2299 11.539 36.2529 11.965 36.1084 12.348Z" fill="#FF7B52"/>
</g>
</g>
<g clip-path="url(#clip12_332_2260)">
<g clip-path="url(#clip13_332_2260)">
<path d="M49.787 55.8404C52.1604 53.528 52.2099 49.7292 49.8975 47.3558C47.5851 44.9823 43.7864 44.9328 41.4129 47.2452C39.0395 49.5576 38.99 53.3564 41.3024 55.7298C41.3388 55.7672 41.3757 55.8041 41.4131 55.8404C39.57 56.7821 38.4072 58.6745 38.4 60.7442V70.8C38.3999 71.4626 38.9369 71.9999 39.5994 72C39.5996 72 39.5999 72 39.6 72H51.6C52.2626 72.0002 52.7999 71.4632 52.8 70.8006C52.8 70.8005 52.8 70.8002 52.8 70.8V60.7442C52.7928 58.6745 51.6302 56.7821 49.787 55.8404ZM45.6 47.9555C47.5883 47.9555 49.2 49.5672 49.2 51.5555C49.2 53.5437 47.5883 55.1555 45.6 55.1555C43.6118 55.1555 42 53.5437 42 51.5555C42.0021 49.5681 43.6127 47.9577 45.6 47.9555ZM50.4 69.6H40.8V60.7442C40.8024 59.0085 42.209 57.6021 43.9448 57.6H47.2553C48.9909 57.6021 50.3976 59.0085 50.4 60.7442V69.6Z" fill="#FF7B52"/>
</g>
</g>
<g clip-path="url(#clip14_332_2260)">
<g clip-path="url(#clip15_332_2260)">
<path d="M68.9869 55.8404C71.3604 53.528 71.4099 49.7292 69.0975 47.3558C66.7851 44.9823 62.9863 44.9328 60.6129 47.2452C58.2394 49.5576 58.1899 53.3564 60.5023 55.7298C60.5388 55.7672 60.5757 55.8041 60.613 55.8404C58.77 56.7821 57.6072 58.6745 57.6 60.7442V70.8C57.5998 71.4626 58.1368 71.9999 58.7994 72C58.7995 72 58.7998 72 58.8 72H70.8C71.4625 72.0002 71.9998 71.4632 72 70.8006C72 70.8005 72 70.8002 72 70.8V60.7442C71.9928 58.6745 70.8301 56.7821 68.9869 55.8404ZM64.8 47.9555C66.7882 47.9555 68.4 49.5672 68.4 51.5555C68.4 53.5437 66.7882 55.1555 64.8 55.1555C62.8117 55.1555 61.2 53.5437 61.2 51.5555C61.2021 49.5681 62.8126 47.9577 64.8 47.9555ZM69.6 69.6H60V60.7442C60.0024 59.0085 61.4089 57.6021 63.1447 57.6H66.4552C68.1909 57.6021 69.5976 59.0085 69.6 60.7442V69.6Z" fill="#FF7B52"/>
</g>
</g>
</g>
</g>
<defs>
<clipPath id="clip0_332_2260">
<rect width="72" height="72" fill="white"/>
</clipPath>
<clipPath id="clip1_332_2260">
<rect width="72" height="72" fill="white"/>
</clipPath>
<clipPath id="clip2_332_2260">
<rect width="72" height="31.2" fill="white"/>
</clipPath>
<clipPath id="clip3_332_2260">
<rect width="72" height="31.2" fill="white"/>
</clipPath>
<clipPath id="clip4_332_2260">
<rect width="24" height="2.4" fill="white" transform="translate(39.6 6)"/>
</clipPath>
<clipPath id="clip5_332_2260">
<rect width="24" height="2.4" fill="white" transform="translate(39.6 6)"/>
</clipPath>
<clipPath id="clip6_332_2260">
<rect width="24" height="2.4" fill="white" transform="translate(43.2 13.2)"/>
</clipPath>
<clipPath id="clip7_332_2260">
<rect width="24" height="2.4" fill="white" transform="translate(43.2 13.2)"/>
</clipPath>
<clipPath id="clip8_332_2260">
<rect width="24" height="2.4" fill="white" transform="translate(38.4 20.4)"/>
</clipPath>
<clipPath id="clip9_332_2260">
<rect width="24" height="2.4" fill="white" transform="translate(38.4 20.4)"/>
</clipPath>
<clipPath id="clip10_332_2260">
<rect width="38.6023" height="67.2" fill="white" transform="translate(0 4.79999)"/>
</clipPath>
<clipPath id="clip11_332_2260">
<rect width="38.6023" height="67.2" fill="white" transform="translate(0 4.79999)"/>
</clipPath>
<clipPath id="clip12_332_2260">
<rect width="14.4" height="26.4572" fill="white" transform="translate(38.4 45.5428)"/>
</clipPath>
<clipPath id="clip13_332_2260">
<rect width="14.4" height="26.4572" fill="white" transform="translate(38.4 45.5428)"/>
</clipPath>
<clipPath id="clip14_332_2260">
<rect width="14.4" height="26.4572" fill="white" transform="translate(57.6 45.5428)"/>
</clipPath>
<clipPath id="clip15_332_2260">
<rect width="14.4" height="26.4572" fill="white" transform="translate(57.6 45.5428)"/>
</clipPath>
</defs>
</svg>
