<svg width="73" height="72" viewBox="0 0 73 72" fill="none" xmlns="http://www.w3.org/2000/svg">
<g clip-path="url(#clip0_332_2228)">
<g clip-path="url(#clip1_332_2228)">
<g clip-path="url(#clip2_332_2228)">
<path d="M66.6715 37.7437C66.4547 36.6138 65.4665 35.7967 64.3159 35.7961H61.9987L61.8283 34.7749C61.6583 33.7492 60.8502 32.9478 59.8231 32.7865C59.5951 32.7505 59.3647 32.7265 59.1379 32.6953C59.5309 30.8607 59.2044 28.9453 58.2259 27.3445C58.7429 26.0034 58.6464 24.5032 57.9619 23.2395C57.2774 21.9757 56.0736 21.0753 54.6679 20.7757C53.7693 15.966 49.5851 12.4699 44.6923 12.4405C44.5723 12.4405 44.4655 12.4561 44.3515 12.4597C43.5697 11.2319 42.2808 10.417 40.8364 10.2374C39.3919 10.0577 37.9427 10.532 36.8839 11.5309C35.5502 10.6639 33.9939 10.2017 32.4031 10.2001C29.84 10.2106 27.4243 11.4002 25.8535 13.4257C24.1094 12.9171 22.2286 13.2294 20.7424 14.2743C19.2562 15.3193 18.3259 16.9835 18.2143 18.7969C16.3823 19.567 15.1903 21.36 15.1891 23.3473C15.1929 23.6917 15.2331 24.0349 15.3091 24.3709C13.689 26.8133 13.2657 29.8592 14.1583 32.6509C13.8367 32.6953 13.5079 32.7349 13.1983 32.7805C12.1659 32.9362 11.3506 33.738 11.1775 34.7677L11.0071 35.7925H8.68394C7.53536 35.7933 6.54835 36.6077 6.32954 37.7353L1.07474 64.7137C0.869524 65.7702 1.14781 66.8632 1.83332 67.6929C2.51883 68.5227 3.53964 69.0022 4.61594 69.0001H29.6407C30.6343 70.6393 33.6535 71.4001 36.4999 71.4001C39.3163 71.4001 42.3067 70.6573 43.3291 69.0001H68.3839C69.46 69.0022 70.4806 68.5228 71.166 67.6933C71.8515 66.8639 72.13 65.7712 71.9251 64.7149L66.6715 37.7437ZM18.8179 25.5193C17.8436 24.9334 17.3786 23.7705 17.6804 22.6744C17.9823 21.5783 18.9771 20.8173 20.1139 20.8129C20.9096 20.8105 21.6584 21.1887 22.1287 21.8305C22.3843 22.1747 22.804 22.3565 23.2299 22.3074C23.6558 22.2582 24.0231 21.9856 24.1935 21.5922C24.3639 21.1988 24.3115 20.7443 24.0559 20.4001C23.2411 19.311 22.0063 18.6143 20.6527 18.4801C21.0105 16.7995 22.4925 15.5964 24.2107 15.5917C24.3572 15.5991 24.503 15.6151 24.6475 15.6397C24.551 15.8857 24.4669 16.1364 24.3955 16.3909C24.2462 17.0261 24.6318 17.6642 25.2636 17.8274C25.8954 17.9906 26.5418 17.619 26.7187 16.9909C26.8552 16.4635 27.0648 15.9577 27.3415 15.4885C28.406 13.7052 30.3264 12.6093 32.4031 12.6001C33.5334 12.6051 34.6378 12.9386 35.5819 13.5601C35.4021 14.0654 35.3068 14.5969 35.2999 15.1333C35.2999 15.796 35.8372 16.3333 36.4999 16.3333C37.1627 16.3333 37.6999 15.796 37.6999 15.1333C37.6999 13.7392 38.8301 12.6091 40.2241 12.6091C41.6182 12.6091 42.7483 13.7392 42.7483 15.1333C42.7483 15.796 43.2856 16.3333 43.9483 16.3333C44.6111 16.3333 45.1483 15.796 45.1483 15.1333C45.1483 15.0409 45.1255 14.9533 45.1207 14.8609C48.5568 15.0729 51.4461 17.5153 52.2271 20.8681C51.6674 21.031 51.1414 21.2932 50.6743 21.6421C50.3314 21.8993 50.1517 22.32 50.203 22.7456C50.2542 23.1712 50.5287 23.5372 50.923 23.7056C51.3172 23.874 51.7714 23.8193 52.1143 23.5621C53.0733 22.8521 54.3979 22.9087 55.2928 23.6979C56.1876 24.4871 56.4093 25.7943 55.8247 26.8345C55.5635 27.2938 55.1666 27.661 54.6883 27.8857C54.1868 28.1285 53.9185 28.6846 54.0404 29.2283C54.1623 29.772 54.6424 30.1602 55.1995 30.1657C55.3755 30.1659 55.5493 30.127 55.7083 30.0517C56.0264 29.8975 56.3269 29.7097 56.6047 29.4913C57.2251 31.2547 56.836 33.2161 55.5895 34.6093L55.5607 34.6393C53.9974 36.3328 51.5036 36.7905 49.4407 35.7625C49.2387 35.6558 49.0446 35.5346 48.8599 35.4001C49.7438 34.1609 49.8659 32.5332 49.1767 31.1761C48.9838 30.793 48.6012 30.542 48.173 30.5175C47.7448 30.4931 47.3361 30.6989 47.1008 31.0575C46.8655 31.4161 46.8394 31.873 47.0323 32.2561C47.4269 33.0492 47.1808 34.0117 46.4539 34.5181C46.0271 34.8023 45.4998 34.8921 45.0029 34.7654C44.506 34.6387 44.0861 34.3072 43.8475 33.8533C43.6557 33.4698 43.2738 33.2178 42.8458 33.1922C42.4178 33.1666 42.0086 33.3713 41.7724 33.7292C41.5362 34.0871 41.5089 34.5438 41.7007 34.9273C42.4045 36.3479 43.8545 37.2451 45.4399 37.2409C45.9561 37.2374 46.467 37.1368 46.9459 36.9445C47.3745 37.3197 47.8467 37.642 48.3523 37.9045C50.0626 38.791 52.0514 38.9748 53.8951 38.4169C52.7093 40.0361 50.9345 41.1243 48.9535 41.4469C48.3373 41.5472 47.9009 42.1033 47.9501 42.7258C47.9993 43.3482 48.5176 43.829 49.1419 43.8313C49.2058 43.8312 49.2696 43.8264 49.3327 43.8169C50.0635 43.6904 50.7776 43.4818 51.4615 43.1953C51.8312 43.8489 52.1313 44.5394 52.3567 45.2557C52.398 45.3807 52.4191 45.5116 52.4191 45.6433C52.4188 46.1619 52.1091 46.6303 51.6319 46.8337C51.08 47.0472 50.4533 46.8787 50.0827 46.4173C49.1534 45.3259 47.9365 44.5173 46.5703 44.0833C43.9771 43.2145 42.9763 42.4381 42.5515 41.5933C43.1742 41.5156 43.7894 41.3872 44.3911 41.2093C44.801 41.0832 45.1125 40.7481 45.2082 40.3301C45.304 39.9122 45.1695 39.4749 44.8554 39.1829C44.5414 38.891 44.0954 38.7888 43.6855 38.9149C43.0122 39.1215 42.3171 39.2491 41.6143 39.2953C40.2603 39.4011 38.9001 39.1959 37.6375 38.6953C37.1635 38.5104 36.6244 38.6446 36.2923 39.0301C34.5452 41.037 31.5549 41.3781 29.4006 39.8162C27.2464 38.2543 26.6409 35.3062 28.0051 33.0217C28.2261 32.6528 28.2336 32.194 28.0246 31.8181C27.8156 31.4423 27.422 31.2064 26.992 31.1995C26.562 31.1926 26.1609 31.4156 25.9399 31.7845C25.6536 32.2717 25.4234 32.7898 25.2535 33.3289C24.3086 33.2792 23.5634 32.5062 23.5483 31.5601V31.5301C23.5477 31.2134 23.4206 30.9102 23.1952 30.6877C22.9699 30.4653 22.665 30.3421 22.3483 30.3457C21.6827 30.3523 21.147 30.8944 21.1483 31.5601C21.1537 33.6882 22.7586 35.4719 24.8743 35.7013C24.8786 36.1035 24.9152 36.5048 24.9835 36.9013C22.3042 37.481 19.5252 36.5179 17.7792 34.4045C16.0332 32.2911 15.6118 29.3803 16.6867 26.8585C16.9552 27.1301 17.2549 27.3689 17.5795 27.5701C18.1464 27.9021 18.8749 27.7166 19.214 27.1539C19.553 26.5911 19.3765 25.8604 18.8179 25.5145V25.5193ZM13.5379 35.1589C14.0911 35.0773 14.6623 35.0053 15.2299 34.9309C17.4487 38.4764 21.6921 40.198 25.7539 39.2005C26.8453 41.2719 28.8396 42.7164 31.148 43.1077C33.4565 43.4989 35.8154 42.7922 37.5283 41.1961C38.3438 41.4393 39.1838 41.5914 40.0327 41.6497C40.6123 43.8481 42.2875 45.1801 45.8071 46.3597C46.756 46.6571 47.6024 47.2146 48.2503 47.9689C48.9707 48.8255 50.0303 49.3233 51.1495 49.3309C51.639 49.3307 52.1235 49.2319 52.5739 49.0405C53.9342 48.4591 54.8166 47.1225 54.8167 45.6433C54.8178 45.2575 54.7562 44.8741 54.6343 44.5081C54.3645 43.6602 54.0091 42.842 53.5735 42.0661C55.6141 40.5992 57.0356 38.4252 57.5611 35.9677C57.8167 35.664 58.0478 35.3406 58.2523 35.0005C58.6543 35.0521 59.0563 35.0977 59.4607 35.1649L63.7927 61.2217C55.325 58.3941 46.1677 58.3941 37.6999 61.2217V46.2001C37.6999 45.5373 37.1627 45.0001 36.4999 45.0001C35.8372 45.0001 35.2999 45.5373 35.2999 46.2001V61.2265C26.8331 58.3963 17.6761 58.3929 9.20714 61.2169L13.5379 35.1589ZM3.68114 66.1585C3.45439 65.8846 3.36196 65.5236 3.42914 65.1745L8.68394 38.1961H10.6039L6.83834 60.8269C6.70589 61.6506 7.0092 62.4842 7.64002 63.0302C8.27084 63.5762 9.13932 63.7569 9.93554 63.5077C16.3327 61.4351 23.1481 61.0027 29.7559 62.2501L29.3983 66.6001H4.61594C4.25392 66.6003 3.91086 66.4383 3.68114 66.1585ZM36.4999 69.0001C33.6091 69.0001 31.9507 68.1457 31.7071 67.7653L32.1199 62.7853C33.4394 63.1138 34.7307 63.5468 35.9815 64.0801C36.1433 64.158 36.3204 64.199 36.4999 64.2001C36.68 64.1998 36.8576 64.1588 37.0195 64.0801C38.2696 63.5436 39.5605 63.1078 40.8799 62.7769L41.2927 67.7641C41.0491 68.1457 39.3907 69.0001 36.4999 69.0001ZM69.3187 66.1585C69.089 66.4383 68.746 66.6003 68.3839 66.6001H43.6051L43.2451 62.2417C49.8566 60.9968 56.6749 61.433 63.0739 63.5101C63.87 63.756 64.7366 63.5728 65.365 63.0257C65.9934 62.4787 66.2942 61.6456 66.1603 60.8233L62.3983 38.1973H64.3183L69.5743 65.1733C69.6409 65.5234 69.5471 65.8849 69.3187 66.1585Z" fill="#2DC071"/>
<path d="M32.5231 27.822C32.0318 28.2665 31.9937 29.0249 32.4379 29.5164C33.4558 30.6403 34.8012 31.416 36.2839 31.734C35.6124 32.6803 34.5234 33.2418 33.3631 33.24C32.7003 33.24 32.1631 33.7773 32.1631 34.44C32.1631 35.1027 32.7003 35.64 33.3631 35.64C35.8473 35.6499 38.0762 34.1156 38.9539 31.7916C41.9377 31.2971 44.3 29.0004 44.8783 26.0316C44.9676 25.607 44.8208 25.1672 44.4942 24.8814C44.1676 24.5957 43.7122 24.5085 43.3032 24.6534C42.8942 24.7983 42.5953 25.1528 42.5215 25.5804C42.2862 26.8181 41.5721 27.9129 40.5343 28.6272C38.5378 29.9718 35.8602 29.6666 34.2175 27.9072C33.773 27.416 33.0146 27.3778 32.5231 27.822Z" fill="#2DC071"/>
<path d="M28.3399 26.5201C29.0026 26.5201 29.5399 25.9828 29.5399 25.3201C29.5399 24.4926 29.8686 23.699 30.4537 23.1139C31.0388 22.5288 31.8324 22.2 32.6599 22.2C33.3226 22.2 33.8599 21.6628 33.8599 21C33.8599 20.3373 33.3226 19.8 32.6599 19.8C29.6127 19.8034 27.1432 22.2728 27.1399 25.3201C27.1399 25.6383 27.2663 25.9435 27.4914 26.1686C27.7164 26.3936 28.0216 26.5201 28.3399 26.5201Z" fill="#2DC071"/>
<path d="M37.6999 3.00004V1.80004C37.6999 1.13729 37.1627 0.600037 36.4999 0.600037C35.8372 0.600037 35.2999 1.13729 35.2999 1.80004V3.00004C35.2999 3.66278 35.8372 4.20004 36.4999 4.20004C37.1627 4.20004 37.6999 3.66278 37.6999 3.00004Z" fill="#2DC071"/>
<path d="M56.192 9.21122L54.992 10.4112C54.68 10.7125 54.5549 11.1587 54.6647 11.5782C54.7746 11.9978 55.1022 12.3254 55.5218 12.4353C55.9413 12.5451 56.3875 12.42 56.6888 12.108L57.8888 10.908C58.2007 10.6067 58.3259 10.1606 58.216 9.74102C58.1062 9.32146 57.7786 8.99381 57.359 8.88399C56.9394 8.77417 56.4933 8.89928 56.192 9.21122Z" fill="#2DC071"/>
<path d="M17.1595 12.4596C17.6448 12.4595 18.0822 12.1672 18.2679 11.7188C18.4536 11.2705 18.351 10.7544 18.0079 10.4112L16.8079 9.21122C16.5066 8.89928 16.0605 8.77417 15.6409 8.88399C15.2214 8.99381 14.8937 9.32146 14.7839 9.74102C14.6741 10.1606 14.7992 10.6067 15.1111 10.908L16.3111 12.108C16.5361 12.3331 16.8413 12.4596 17.1595 12.4596Z" fill="#2DC071"/>
<path d="M26.3973 7.41002C26.5549 7.40968 26.711 7.3787 26.8569 7.31882C27.151 7.19698 27.3846 6.96327 27.5064 6.66911C27.6282 6.37496 27.628 6.04448 27.5061 5.75042L26.1273 2.42402C25.9693 2.01887 25.6046 1.73086 25.1738 1.67122C24.7431 1.61157 24.3138 1.78961 24.0517 2.1366C23.7896 2.48358 23.7357 2.9452 23.9109 3.34322L25.2885 6.66962C25.4743 7.11792 25.9119 7.41014 26.3973 7.41002Z" fill="#2DC071"/>
<path d="M48.44 1.77477C47.8279 1.52158 47.1265 1.81214 46.8728 2.42397L45.494 5.75037C45.3716 6.04458 45.3713 6.37536 45.4931 6.6698C45.6149 6.96423 45.8487 7.19815 46.1432 7.31997C46.289 7.37986 46.4451 7.41084 46.6028 7.41117C47.0881 7.4113 47.5257 7.11908 47.7116 6.67077L49.0892 3.34437C49.2115 3.05017 49.2118 2.71939 49.0901 2.42495C48.9683 2.13051 48.7344 1.8966 48.44 1.77477Z" fill="#2DC071"/>
<path d="M60.8899 21.6985C61.0477 21.6982 61.2039 21.6668 61.3495 21.6061L64.6747 20.2285C65.0709 20.0645 65.3494 19.7016 65.4055 19.2766C65.4615 18.8515 65.2866 18.4288 64.9465 18.1678C64.6064 17.9067 64.1529 17.8469 63.7567 18.0109L60.4303 19.3885C59.8995 19.6065 59.5974 20.1698 59.7093 20.7326C59.8213 21.2955 60.3161 21.7002 60.8899 21.6985Z" fill="#2DC071"/>
<path d="M11.6503 21.606C12.2627 21.8598 12.9649 21.5692 13.2187 20.9568C13.4725 20.3444 13.1819 19.6422 12.5695 19.3884L9.2431 18.0108C8.63073 17.7573 7.9288 18.0482 7.6753 18.6606C7.4218 19.273 7.71273 19.9749 8.3251 20.2284L11.6503 21.606Z" fill="#2DC071"/>
</g>
</g>
</g>
<defs>
<clipPath id="clip0_332_2228">
<rect width="72" height="72" fill="white" transform="translate(0.5)"/>
</clipPath>
<clipPath id="clip1_332_2228">
<rect width="70.9823" height="70.8" fill="white" transform="translate(1.00867 0.600037)"/>
</clipPath>
<clipPath id="clip2_332_2228">
<rect width="70.9823" height="70.8" fill="white" transform="translate(1.00867 0.600037)"/>
</clipPath>
</defs>
</svg>
