<svg width="19" height="20" viewBox="0 0 19 20" fill="none" xmlns="http://www.w3.org/2000/svg">
<path d="M9.43541 10.9328C8.85223 10.9328 8.28215 10.7547 7.79726 10.421C7.31237 10.0873 6.93444 9.61301 6.71127 9.05809C6.48809 8.50317 6.4297 7.89255 6.54347 7.30345C6.65725 6.71435 6.93807 6.17323 7.35044 5.74851C7.76281 5.32379 8.2882 5.03456 8.86017 4.91738C9.43214 4.8002 10.025 4.86034 10.5638 5.0902C11.1026 5.32005 11.5631 5.7093 11.8871 6.20871C12.2111 6.70813 12.384 7.29528 12.384 7.89592C12.3831 8.70106 12.0721 9.47295 11.5193 10.0423C10.9666 10.6116 10.2171 10.9319 9.43541 10.9328ZM9.43541 6.07378C9.0855 6.07378 8.74345 6.18065 8.45252 6.38087C8.16158 6.58109 7.93483 6.86567 7.80092 7.19862C7.66702 7.53157 7.63198 7.89794 7.70025 8.2514C7.76851 8.60486 7.93701 8.92954 8.18443 9.18437C8.43185 9.4392 8.74708 9.61274 9.09026 9.68305C9.43344 9.75335 9.78916 9.71727 10.1124 9.57936C10.4357 9.44144 10.712 9.20789 10.9064 8.90825C11.1008 8.6086 11.2046 8.2563 11.2046 7.89592C11.2041 7.41281 11.0175 6.94962 10.6859 6.60801C10.3542 6.2664 9.90447 6.07427 9.43541 6.07378Z" fill="black"/>
<path d="M9.43539 18.2214L4.46053 12.1785C4.3914 12.0878 4.32299 11.9965 4.2553 11.9046C3.40594 10.7514 2.94691 9.34336 2.94849 7.89592C2.94849 6.12396 3.63193 4.42458 4.84846 3.17162C6.06499 1.91866 7.71495 1.21475 9.43539 1.21475C11.1558 1.21475 12.8058 1.91866 14.0223 3.17162C15.2388 4.42458 15.9223 6.12396 15.9223 7.89592C15.9236 9.34267 15.4648 10.75 14.6161 11.9028L14.6155 11.9046C14.6155 11.9046 14.4386 12.1439 14.412 12.1761L9.43539 18.2214ZM5.19708 11.1727C5.19708 11.1727 5.33449 11.3598 5.36574 11.3999L9.43539 16.3433L13.5103 11.3932C13.5363 11.3598 13.6743 11.1715 13.6749 11.1709C14.3691 10.229 14.7443 9.07851 14.7428 7.89592C14.7428 6.44614 14.1837 5.05574 13.1883 4.03058C12.193 3.00543 10.843 2.42951 9.43539 2.42951C8.02776 2.42951 6.67779 3.00543 5.68244 4.03058C4.6871 5.05574 4.12793 6.44614 4.12793 7.89592C4.12647 9.07928 4.50207 10.2304 5.19708 11.1727Z" fill="black"/>
</svg>
