<svg width="31" height="31" viewBox="0 0 31 31" fill="none" xmlns="http://www.w3.org/2000/svg">
<path d="M15.5 6.78125C17.3726 6.78125 18.8906 5.26322 18.8906 3.39062C18.8906 1.51803 17.3726 0 15.5 0C13.6274 0 12.1094 1.51803 12.1094 3.39062C12.1094 5.26322 13.6274 6.78125 15.5 6.78125Z" fill="#3B2565"/>
<path d="M18.4062 7.75H12.5938C11.567 7.75303 10.5831 8.16227 9.85706 8.88831C9.13102 9.61436 8.72178 10.5982 8.71875 11.625V18.135C8.71875 18.7919 9.22916 19.3508 9.88549 19.3744C10.0481 19.3803 10.2103 19.3534 10.3623 19.2953C10.5144 19.2371 10.6531 19.1489 10.7703 19.0359C10.8874 18.923 10.9806 18.7875 11.0442 18.6377C11.1079 18.4879 11.1407 18.3268 11.1406 18.1641V12.1257C11.1391 12.0008 11.1848 11.8798 11.2687 11.7872C11.3526 11.6946 11.4684 11.637 11.5929 11.6262C11.6592 11.6218 11.7256 11.6311 11.7881 11.6534C11.8507 11.6758 11.9079 11.7108 11.9564 11.7562C12.0048 11.8016 12.0434 11.8565 12.0697 11.9175C12.096 11.9785 12.1095 12.0442 12.1094 12.1106V29.6074C12.1094 29.9768 12.2561 30.331 12.5173 30.5921C12.7784 30.8533 13.1326 31 13.502 31C13.8713 31 14.2255 30.8533 14.4867 30.5921C14.7478 30.331 14.8945 29.9768 14.8945 29.6074V20.9698C14.8924 20.8134 14.9494 20.6621 15.0542 20.546C15.1589 20.4299 15.3037 20.3576 15.4594 20.3438C15.5423 20.3382 15.6254 20.3497 15.7036 20.3777C15.7818 20.4056 15.8534 20.4493 15.914 20.5061C15.9746 20.5629 16.0229 20.6315 16.0558 20.7077C16.0888 20.784 16.1057 20.8662 16.1055 20.9492V29.6074C16.1055 29.9768 16.2522 30.331 16.5133 30.5921C16.7745 30.8533 17.1287 31 17.498 31C17.8674 31 18.2216 30.8533 18.4827 30.5921C18.7439 30.331 18.8906 29.9768 18.8906 29.6074V12.1257C18.8891 12.0008 18.9348 11.8798 19.0187 11.7872C19.1026 11.6946 19.2184 11.637 19.3429 11.6262C19.4092 11.6218 19.4756 11.6311 19.5381 11.6534C19.6007 11.6758 19.6579 11.7108 19.7064 11.7562C19.7548 11.8016 19.7934 11.8565 19.8197 11.9175C19.846 11.9785 19.8595 12.0442 19.8594 12.1106V18.1362C19.8594 18.7931 20.3698 19.352 21.0261 19.3756C21.1889 19.3816 21.3511 19.3546 21.5032 19.2964C21.6553 19.2382 21.7941 19.1498 21.9113 19.0367C22.0285 18.9236 22.1216 18.788 22.1852 18.6381C22.2488 18.4882 22.2814 18.3269 22.2812 18.1641V11.625C22.2782 10.5982 21.869 9.61436 21.1429 8.88831C20.4169 8.16227 19.433 7.75303 18.4062 7.75Z" fill="#3B2565"/>
</svg>
