<svg width="31" height="31" viewBox="0 0 31 31" fill="none" xmlns="http://www.w3.org/2000/svg">
<path d="M15.4849 6.78125C17.3575 6.78125 18.8755 5.26322 18.8755 3.39062C18.8755 1.51803 17.3575 0 15.4849 0C13.6123 0 12.0942 1.51803 12.0942 3.39062C12.0942 5.26322 13.6123 6.78125 15.4849 6.78125Z" fill="#3B2565"/>
<path d="M23.8935 16.826L23.2681 14.7426V14.7359L21.9082 10.2034H21.9052L21.7532 9.69173C21.5864 9.13073 21.2428 8.6386 20.7737 8.28861C20.3046 7.93863 19.735 7.7495 19.1497 7.74939H11.8841C11.2987 7.74921 10.729 7.93822 10.2598 8.28825C9.79061 8.63828 9.44713 9.13057 9.28055 9.69173L9.12858 10.2034H9.12495L7.76507 14.7359V14.7426L7.1372 16.826C6.94829 17.4551 7.27645 18.1374 7.89827 18.3481C8.05231 18.4006 8.21535 18.4214 8.37764 18.4094C8.53992 18.3975 8.69813 18.3529 8.84281 18.2784C8.98748 18.2039 9.11567 18.101 9.21969 17.9759C9.32372 17.8508 9.40146 17.706 9.44827 17.5501L10.9971 12.3885L11.1284 11.9507C11.1668 11.8438 11.2416 11.7537 11.3397 11.6962C11.4377 11.6388 11.5529 11.6177 11.665 11.6366C11.777 11.6555 11.8789 11.7132 11.9527 11.7997C12.0265 11.8861 12.0676 11.9957 12.0687 12.1094C12.0687 12.1421 12.0652 12.1748 12.0584 12.2069L9.41073 21.034C9.36731 21.1786 9.35831 21.3314 9.38444 21.4801C9.41058 21.6289 9.47112 21.7694 9.56123 21.8906C9.65135 22.0118 9.76855 22.1102 9.90347 22.178C10.0384 22.2459 10.1873 22.2812 10.3383 22.2812H12.0942V29.2254C12.0942 30.222 12.7317 31 13.5473 31C14.3629 31 15.0004 30.222 15.0004 29.2254V22.2812H15.9692V29.2254C15.9692 30.222 16.6067 31 17.4223 31C18.2379 31 18.8754 30.222 18.8754 29.2254V22.2812H20.6918C20.8429 22.2813 20.9919 22.246 21.1269 22.1782C21.2619 22.1104 21.3791 22.012 21.4693 21.8908C21.5595 21.7697 21.6201 21.6291 21.6463 21.4803C21.6724 21.3315 21.6634 21.1787 21.62 21.034L18.9717 12.2056C18.965 12.174 18.9618 12.1417 18.962 12.1094C18.9626 11.9954 19.0034 11.8852 19.0772 11.7984C19.151 11.7115 19.2531 11.6534 19.3655 11.6344C19.4779 11.6154 19.5935 11.6366 19.6917 11.6944C19.79 11.7521 19.8648 11.8427 19.9029 11.9501L20.0343 12.3879L21.5825 17.5495C21.6295 17.7051 21.7073 17.8497 21.8114 17.9746C21.9155 18.0994 22.0436 18.2021 22.1882 18.2764C22.3328 18.3507 22.4909 18.3951 22.653 18.407C22.8151 18.4189 22.978 18.3981 23.1319 18.3457C23.7537 18.1374 24.0818 17.4551 23.8935 16.826Z" fill="#3B2565"/>
</svg>
